<?xml version="1.0" encoding="utf-8"?>
<!-- Generator: Adobe Illustrator 25.2.3, SVG Export Plug-In . SVG Version: 6.00 Build 0)  -->
<svg version="1.1" id="Layer_1" xmlns="http://www.w3.org/2000/svg" xmlns:xlink="http://www.w3.org/1999/xlink" x="0px" y="0px"
     viewBox="0 0 800 800" style="enable-background:new 0 0 800 800;" xml:space="preserve">
<style type="text/css">
	.st0{fill:#FFFFFF;}
	.st1{fill:#00FF3C;}
	.st2{font-family:'DYMO-Symbols';}
	.st3{font-size:25px;}
	.st4{letter-spacing:1;}
	.st5{font-size:23px;}
	.st6{letter-spacing:2;}
	.st7{fill:none;}
</style>
    <path id="Fuselage" class="st0" d="M659.84,394.56l7.46-22.93l-1.18-3.08h-10.07l-5.84,9.33H406.71V197.1h79.58v-14.19H310.43v14.19
	h79.58v180.79H146.51l-5.84-9.33H130.6l-1.18,3.08l7.46,22.93h221.29c-2.69,6.93-9.64,29.21,2.85,48.92l0.06,0.09
	c1.49,2.02,8.48,8.5,36.26,8.8v0.01c0.35,0,0.68-0.01,1.02-0.01c0.34,0,0.67,0.01,1.02,0.01v-0.01c27.77-0.3,34.76-6.78,36.26-8.8
	l0.06-0.09c12.49-19.71,5.54-41.99,2.85-48.92H659.84z M433.94,391.56l0.99,2.13c0.12,0.26,12.01,26.36-1.74,48.13
	c-0.72,0.93-6.74,7.4-34.83,7.55c-28.09-0.16-34.12-6.63-34.83-7.55c-13.75-21.76-1.86-47.86-1.74-48.13l0.99-2.13H139.06
	l-6.46-19.85l0.06-0.16H139l5.84,9.33h248.17V194.1h-79.58v-8.19h169.86v8.19h-79.58v186.79h248.17l5.84-9.33h6.35l0.06,0.16
	l-6.46,19.85H433.94z"/>
    <text transform="matrix(1 0 0 1 279.312 328.6732)" class="st1 st2 st3 st4">DLC</text>
    <text transform="matrix(1 0 0 1 469.3537 328.6734)" class="st1 st2 st3 st4">DLC</text>
    <g id="brake-temps-right">
	<text transform="matrix(1 0 0 1 462.0824 633.3582)" class="st0 st2 st5 st4">BRAKE TEMP  °C</text>
        <text transform="matrix(1 0 0 1 457.6873 672.4279)" class="st1 st2 st3 st4">174</text>
        <text transform="matrix(1 0 0 1 457.6872 734.0204)" class="st1 st2 st3 st4">172</text>
        <text transform="matrix(1 0 0 1 540.8715 734.0209)" class="st1 st2 st3 st4">166</text>
        <text transform="matrix(1 0 0 1 540.8712 672.4277)" class="st1 st2 st3 st4">167</text>
        <text transform="matrix(1 0 0 1 622.156 672.4285)" class="st1 st2 st3 st4">179</text>
        <text transform="matrix(1 0 0 1 622.1562 734.0209)" class="st1 st2 st3 st4">174</text>
</g>
    <g id="brake-temps-left">
	<text transform="matrix(1 0 0 1 138.7407 633.3583)" class="st0 st2 st5 st4">BRAKE TEMP  °C</text>
        <text id="router-outer-temp" transform="matrix(1 0 0 1 137.6413 734.0209)" class="st1 st2 st3 st4">171</text>
        <text id="front-inner-temp" transform="matrix(1 0 0 1 297.4907 672.4281)" class="st1 st2 st3 st4">173</text>
        <text id="front-center-temp" transform="matrix(1 0 0 1 217.5302 672.4281)" class="st1 st2 st3 st4">172</text>
        <text id="front-outer-temp" transform="matrix(1 0 0 1 137.6413 672.4282)" class="st1 st2 st3 st4">165</text>
        <text id="rear-center-temp" transform="matrix(1 0 0 1 217.53 734.0206)" class="st1 st2 st3 st4">169</text>
        <text id="rear-inner-temp" transform="matrix(1 0 0 1 297.4908 734.0206)" class="st1 st2 st3 st4">178</text>
</g>
    <g id="landing-gear">
	<text transform="matrix(1 0 0 1 363.1429 577.0728)" class="st0 st2 st5 st4">GEAR</text>
        <rect x="356.33" y="640.47" class="st1" width="31.63" height="44.23"/>
        <rect x="408.78" y="640.47" class="st1" width="31.63" height="44.23"/>
        <rect x="408.78" y="703.08" class="st1" width="31.63" height="44.23"/>
        <rect x="356.33" y="703.08" class="st1" width="31.63" height="44.23"/>
        <rect x="386.15" y="597.66" class="st1" width="23.78" height="31.24"/>
</g>
    <g id="slats">
	<text transform="matrix(1 0 0 1 358.7276 545.1871)" class="st0 st2 st5 st4">SLATS</text>
        <path class="st1" d="M518.16,527.04h-28.38v19.07h28.38V527.04L518.16,527.04z"/>
        <path class="st1" d="M481.88,529.04v15.07H457.5v-15.07H481.88 M483.88,527.04H455.5v19.07h28.38V527.04L483.88,527.04z"/>
        <path class="st1" d="M586.72,527.04h-28.38v19.07h28.38V527.04L586.72,527.04z"/>
        <path class="st1" d="M552.44,527.04h-28.38v19.07h28.38V527.04L552.44,527.04z"/>
        <path class="st1" d="M271.98,527.04h-28.38v19.07h28.38V527.04L271.98,527.04z"/>
        <path class="st1" d="M235.7,529.04v15.07h-24.38v-15.07H235.7 M237.7,527.04h-28.38v19.07h28.38V527.04L237.7,527.04z"/>
        <path class="st1" d="M340.53,527.04h-28.38v19.07h28.38V527.04L340.53,527.04z"/>
        <path class="st1" d="M306.25,527.04h-28.38v19.07h28.38V527.04L306.25,527.04z"/>
</g>
    <g id="rudder-trim">
	<text transform="matrix(1 0 0 1 337.2571 79.6353)" class="st0 st2 st3">RUD TRIM</text>
        <text transform="matrix(1 0 0 1 466.9644 114.3495)" class="st0 st2 st5 st4">NR</text>
        <text transform="matrix(1 0 0 1 301.9347 114.3495)" class="st0 st2 st5 st4">NL</text>
        <text transform="matrix(1 0 0 1 338.0122 144.0445)" class="st0 st2 st5 st4">10</text>
        <text transform="matrix(1 0 0 1 391.9815 144.0443)" class="st0 st2 st5 st4">0</text>
        <text transform="matrix(1 0 0 1 432.6117 144.0445)" class="st0 st2 st5 st4">10</text>
        <polygon class="st0" points="400.16,103.47 400.16,94.57 398.16,94.57 398.16,103.47 351.08,103.47 351.08,119.11 353.08,119.11
		353.08,106.47 374.62,106.47 374.62,119.11 376.62,119.11 376.62,106.47 398.16,106.47 398.16,119.11 400.16,119.11 400.16,106.47
		421.71,106.47 421.71,119.11 423.71,119.11 423.71,106.47 445.25,106.47 445.25,119.11 447.25,119.11 447.25,103.47 	"/>
</g>
    <g id="stabilier-trim">
	<text transform="matrix(1 0 0 1 489.1833 151.2161)" class="st0 st2 st5 st4">15</text>
        <text transform="matrix(1 0 0 1 500.0106 221.4155)" class="st0 st2 st5 st4">0</text>
        <text transform="matrix(1 0 0 1 500.011 244.6442)" class="st0 st2 st5 st4">5</text>
        <text transform="matrix(1 0 0 1 553.5074 150.2162)" class="st0 st2 st5 st4">NU</text>
        <text transform="matrix(1 0 0 1 551.9646 246.6443)" class="st0 st2 st5 st4">ND</text>
        <text transform="matrix(1 0 0 1 582.8757 186.1207)"><tspan x="0" y="0" class="st0 st2 st5 st4">STAB </tspan><tspan x="2.59" y="26" class="st0 st2 st5 st4">TRIM</tspan></text>
        <polyline class="st0" points="538.77,214.93 551.06,214.93 551.06,212.93 538.77,212.93 	"/>
        <polyline class="st0" points="538.77,142.67 522.61,142.67 522.61,144.67 535.77,144.67 535.77,166.09 522.61,166.09
		522.61,168.09 535.77,168.09 535.77,189.51 522.61,189.51 522.61,191.51 535.77,191.51 535.77,212.93 523.84,212.93 523.84,214.93
		535.77,214.93 535.77,236.36 522.61,236.36 522.61,238.36 538.77,238.36 	"/>
</g>
    <g id="aileron-trim">
	<text transform="matrix(1 0 0 1 698.6154 252.435)"><tspan x="0" y="0" class="st0 st2 st3">AIL</tspan><tspan x="-11.79" y="26" class="st0 st2 st3">TRIM</tspan></text>
        <text transform="matrix(1 0 0 1 692.1059 316.2065)" class="st0 st2 st5 st4">RWD</text>
        <text transform="matrix(1 0 0 1 674.3258 346.93)" class="st0 st2 st5 st4">10</text>
        <text transform="matrix(1 0 0 1 674.326 442.3584)" class="st0 st2 st5 st4">10</text>
        <text transform="matrix(1 0 0 1 686.9535 393.2438)" class="st0 st2 st5 st4">0</text>
        <text transform="matrix(1 0 0 1 691.0651 474.7296)" class="st0 st2 st5 st6">LWD</text>
        <polygon id="Ail_Trim_Measure" class="st0" points="733.64,385.15 721.25,385.15 721.25,339.18 721.21,339.18 721.21,338.18
		707.69,338.18 707.69,340.18 718.25,340.18 718.25,362.06 707.69,362.06 707.69,364.06 718.25,364.06 718.25,385.15 707.69,385.15
		707.69,387.15 718.25,387.15 718.25,409.37 707.69,409.37 707.69,411.37 718.25,411.37 718.25,433.58 707.69,433.58 707.69,435.58
		721.21,435.58 721.21,434.58 721.25,434.58 721.25,387.15 733.64,387.15 	"/>
</g>
    <g id="rudder-left">
	<polygon class="st0" points="369.61,235.71 366.61,235.71 366.61,227.47 398.36,227.47 398.36,230.47 369.61,230.47 	"/>
        <polygon class="st0" points="369.61,323.25 366.61,323.25 366.61,331.48 398.36,331.48 398.36,328.48 369.61,328.48 	"/>
        <rect x="369.61" y="230.47" class="st1" width="28.75" height="46.45"/>
        <rect x="369.61" y="282.03" class="st1" width="28.75" height="46.45"/>
</g>
    <g id="rudder-right_1_">
	<polygon class="st0" points="427.11,323.25 430.11,323.25 430.11,331.48 398.36,331.48 398.36,328.48 427.11,328.48 	"/>
        <polygon class="st0" points="427.11,235.71 430.11,235.71 430.11,227.47 398.36,227.47 398.36,230.47 427.11,230.47 	"/>

        <rect x="398.36" y="282.03" transform="matrix(-1 -1.224647e-16 1.224647e-16 -1 825.4676 610.5107)" class="st1" width="28.75" height="46.45"/>

        <rect x="398.36" y="230.47" transform="matrix(-1 -1.224647e-16 1.224647e-16 -1 825.4676 507.3994)" class="st1" width="28.75" height="46.45"/>
</g>
    <g id="ailerson-left-down">
	<polygon class="st0" points="158.67,409.76 158.67,387.13 155.67,387.13 155.67,396.89 150.85,396.89 150.85,398.89 155.67,398.89
		155.67,412.76 164.75,412.76 164.75,409.76 	"/>
        <polygon class="st0" points="224.76,409.76 224.76,387.13 227.76,387.13 227.76,396.89 232.57,396.89 232.57,398.89 227.76,398.89
		227.76,412.76 218.67,412.76 218.67,409.76 	"/>
        <rect x="158.67" y="387.13" class="st1" width="66.09" height="22.62"/>
</g>
    <g id="aileron-left-up">
	<g id="Airleron_Left_2_">
		<polygon class="st0" points="158.67,353.71 158.73,384.49 155.73,384.49 155.67,370.36 150.32,370.36 150.32,368.36
			155.67,368.36 155.67,350.71 164.75,350.71 164.75,353.71 		"/>

        <rect x="158.67" y="353.71" transform="matrix(-1 -1.224647e-16 1.224647e-16 -1 383.4237 738.1996)" class="st1" width="66.09" height="30.77"/>
	</g>
        <polygon class="st0" points="224.76,353.71 224.69,384.49 227.69,384.49 227.76,370.36 233.1,370.36 233.1,368.36 227.76,368.36
		227.76,350.71 218.67,350.71 218.67,353.71 	"/>
</g>
    <g id="aileron-right-down">
	<polygon class="st0" points="571.81,409.76 571.81,387.13 568.81,387.13 568.81,396.89 564,396.89 564,398.89 568.81,398.89
		568.81,412.76 577.9,412.76 577.9,409.76 	"/>
        <polygon class="st0" points="637.9,409.76 637.9,387.13 640.9,387.13 640.9,396.89 645.72,396.89 645.72,398.89 640.9,398.89
		640.9,412.76 631.82,412.76 631.82,409.76 	"/>
        <rect x="571.81" y="387.13" class="st1" width="66.09" height="22.76"/>
</g>
    <g id="aileron-right-up">
	<g id="Airleron_Left_1_">
		<polygon class="st0" points="571.81,353.71 571.88,384.49 568.88,384.49 568.81,370.36 563.47,370.36 563.47,368.36
			568.81,368.36 568.81,350.71 577.9,350.71 577.9,353.71 		"/>

        <rect x="571.81" y="353.71" transform="matrix(-1 -1.224647e-16 1.224647e-16 -1 1209.7162 738.1996)" class="st1" width="66.09" height="30.77"/>
	</g>
        <polygon class="st0" points="637.9,353.71 637.84,384.49 640.84,384.49 640.9,370.36 646.25,370.36 646.25,368.36 640.9,368.36
		640.9,350.71 631.82,350.71 631.82,353.71 	"/>
</g>
    <g id="airbrake-right">
	<polygon class="st0" points="435.72,378.96 432.72,378.96 432.72,350.71 442.11,350.71 442.11,353.71 435.72,353.71 	"/>
        <polygon class="st0" points="556.92,378.96 553.92,378.96 553.92,353.71 547.53,353.71 547.53,350.71 556.92,350.71 	"/>
        <rect x="435.73" y="353.71" class="st1" width="22.04" height="27.67"/>
        <rect x="467.77" y="353.71" class="st1" width="22.04" height="27.67"/>
        <rect x="499.82" y="353.71" class="st1" width="22.04" height="27.67"/>
        <rect x="531.86" y="353.71" class="st1" width="22.04" height="27.67"/>
</g>
    <g id="airbrake-left">
	<polygon class="st0" points="242.8,378.96 239.8,378.96 239.8,350.71 249.18,350.71 249.18,353.71 242.8,353.71 	"/>
        <polygon class="st0" points="364,378.96 361,378.96 361,353.71 354.61,353.71 354.61,350.71 364,350.71 	"/>
        <rect x="242.8" y="353.71" class="st1" width="22.05" height="27.67"/>
        <rect x="274.85" y="353.71" class="st1" width="22.04" height="27.67"/>
        <rect x="306.89" y="353.71" class="st1" width="22.04" height="27.67"/>
        <rect x="338.94" y="353.71" class="st1" width="22.04" height="27.67"/>
</g>
    <g id="flaps-right">
	<polygon class="st0" points="456.48,412.9 446.99,412.9 446.99,387.13 449.99,387.13 449.99,409.9 456.48,409.9 	"/>
        <polygon class="st0" points="549.48,412.9 540,412.9 540,409.9 546.48,409.9 546.48,387.13 549.48,387.13 	"/>
        <rect x="449.99" y="387.13" class="st1" width="42.25" height="22.76"/>
        <rect x="504.23" y="387.13" class="st1" width="42.25" height="22.76"/>
</g>
    <g id="flaps-left">
	<polygon class="st0" points="256.57,412.9 247.09,412.9 247.09,387.13 250.09,387.13 250.09,409.9 256.57,409.9 	"/>
        <polygon class="st0" points="349.58,412.9 340.09,412.9 340.09,409.9 346.58,409.9 346.58,387.13 349.58,387.13 	"/>
        <rect x="250.09" y="387.13" class="st1" width="42.25" height="22.76"/>
        <rect x="304.33" y="387.13" class="st1" width="42.25" height="22.76"/>
</g>
    <g id="elevator-right-down">
	<rect x="422.08" y="189.47" class="st1" width="51.66" height="27.77"/>
        <polygon class="st0" points="422.08,217.25 422.14,189.47 419.14,189.47 419.08,203.36 413.73,203.36 413.73,205.36 419.08,205.36
		419.08,220.25 428.16,220.25 428.16,217.25 	"/>
        <polygon class="st0" points="473.83,217.25 473.77,189.47 476.77,189.47 476.83,203.36 482.18,203.36 482.18,205.36 476.83,205.36
		476.83,220.25 467.75,220.25 467.75,217.25 	"/>
</g>
    <g id="elevator-right-up">

		<rect x="422.12" y="161.7" transform="matrix(-1 -1.224647e-16 1.224647e-16 -1 895.9097 351.1676)" class="st1" width="51.66" height="27.77"/>
        <polygon class="st0" points="473.79,161.7 473.72,189.47 476.72,189.47 476.79,175.58 482.13,175.58 482.13,173.58 476.79,173.58
		476.79,158.7 467.7,158.7 467.7,161.7 	"/>
        <polygon class="st0" points="422.03,161.7 422.1,189.47 419.1,189.47 419.03,175.58 413.69,175.58 413.69,173.58 419.03,173.58
		419.03,158.7 428.11,158.7 428.11,161.7 	"/>
</g>
    <g id="elevator-left-down">
	<rect x="322.98" y="189.47" class="st1" width="51.66" height="27.77"/>
        <polygon class="st0" points="322.98,217.25 323.05,189.47 320.05,189.47 319.98,203.36 314.64,203.36 314.64,205.36 319.98,205.36
		319.98,220.25 329.06,220.25 329.06,217.25 	"/>
        <polygon class="st0" points="374.74,217.25 374.67,189.47 377.67,189.47 377.74,203.36 383.08,203.36 383.08,205.36 377.74,205.36
		377.74,220.25 368.65,220.25 368.65,217.25 	"/>
</g>
    <g id="elevator-left-up">

		<rect x="323.03" y="161.7" transform="matrix(-1 -1.224647e-16 1.224647e-16 -1 697.7164 351.1676)" class="st1" width="51.66" height="27.77"/>
        <polygon class="st0" points="374.69,161.7 374.62,189.47 377.62,189.47 377.69,175.58 383.03,175.58 383.03,173.58 377.69,173.58
		377.69,158.7 368.61,158.7 368.61,161.7 	"/>
        <polygon class="st0" points="322.93,161.7 323,189.47 320,189.47 319.93,175.58 314.59,175.58 314.59,173.58 319.93,173.58
		319.93,158.7 329.01,158.7 329.01,161.7 	"/>
</g>
    <path id="rudder-trim-indicator" class="st1" d="M399.35,106.84c-0.75,0-1.44-0.42-1.78-1.09l-7.6-14.97
	c-0.5-0.98-0.11-2.19,0.88-2.69c0.98-0.5,2.19-0.11,2.69,0.88l5.77,11.37l5.47-11.33c0.48-0.99,1.67-1.41,2.67-0.93
	c0.99,0.48,1.41,1.68,0.93,2.67l-7.22,14.97c-0.33,0.68-1.02,1.12-1.78,1.13C399.37,106.84,399.36,106.84,399.35,106.84z"/>
    <path id="stabiliser-trim-indicator" class="st1" d="M551.96,221c-0.19,0-0.37-0.03-0.55-0.1l-14.09-5.56
	c-0.57-0.23-0.95-0.78-0.95-1.4s0.38-1.17,0.95-1.4l14.09-5.56c0.46-0.18,0.99-0.12,1.39,0.16c0.41,0.28,0.66,0.74,0.66,1.24v11.12
	c0,0.5-0.25,0.96-0.66,1.24C552.55,220.91,552.26,221,551.96,221z M541.95,213.93l8.51,3.36v-6.71L541.95,213.93z"/>
    <path id="aileron-trim-indicator" class="st1" d="M718.46,386.17c0-0.75,0.42-1.44,1.09-1.78l14.97-7.6
	c0.98-0.5,2.19-0.11,2.69,0.88c0.5,0.98,0.11,2.19-0.88,2.69l-11.37,5.77l11.33,5.47c0.99,0.48,1.41,1.67,0.93,2.67
	c-0.48,0.99-1.68,1.41-2.67,0.93l-14.97-7.22c-0.68-0.33-1.12-1.02-1.13-1.78C718.46,386.18,718.46,386.17,718.46,386.17z"/>
    <rect x="260.7" y="465.21" class="st7" width="273.52" height="22.92"/>
    <text transform="matrix(1 0 0 1 324.5364 481.6738)" class="st0 st2 st5 st4">FLAPS FULL</text>
    <text transform="matrix(1 0 0 1 342.8868 512.798)" class="st0 st2 st5 st4">INDEX 80</text>
    <rect x="261.29" y="496.33" class="st7" width="273.52" height="22.92"/>
</svg>
